<?xml version="1.0" standalone="no"?>
<!DOCTYPE svg PUBLIC "-//W3C//DTD SVG 20010904//EN"
 "http://www.w3.org/TR/2001/REC-SVG-20010904/DTD/svg10.dtd">
<svg version="1.0" xmlns="http://www.w3.org/2000/svg"
 width="192.000000pt" height="192.000000pt" viewBox="0 0 192.000000 192.000000"
 preserveAspectRatio="xMidYMid meet">
<metadata>
Created by potrace 1.14, written by Peter Selinger 2001-2017
</metadata>
<g transform="translate(0.000000,192.000000) scale(0.100000,-0.100000)"
fill="#000000" stroke="none">
<path d="M817 1909 c-396 -59 -723 -373 -803 -774 -10 -53 -12 -258 -3 -320
23 -151 113 -361 185 -432 8 -8 14 -18 14 -22 0 -12 123 -129 183 -175 112
-83 291 -158 417 -174 112 -14 290 -6 380 17 376 98 648 391 716 771 18 102
11 292 -15 391 -33 127 -112 292 -167 346 -8 8 -14 18 -14 22 0 12 -123 129
-183 175 -101 74 -271 149 -388 171 -59 10 -262 13 -322 4z"/>
</g>
</svg>
